<svg xmlns="http://www.w3.org/2000/svg" width="712" height="108" id="graph">
  <style>
    :root {
      color-scheme: light dark;
      supported-color-schemes: light dark;
      --color-L0: #ebedf0;
      --color-L1: #9be9a8;
      --color-L2: #40c463;
      --color-L3: #30a14e;
      --color-L4: #216e39;
      --color-outline: rgba(27, 31, 35, 0.06);
    }
    @media (prefers-color-scheme: dark) {
      :root {
        --color-L0: #161b22;
        --color-L1: #0e4429;
        --color-L2: #006d32;
        --color-L3: #26a641;
        --color-L4: #39d353;
        --color-outline: rgba(255, 255, 255, 0.05);
      }
    }
    @keyframes step {
      to {
        transform: translateX(-1040px);
      }
    }
    #graph #text-pixels {
      animation: step 4000ms steps(1000000) infinite;
    }
    #graph .pixel {
      width: 10px;
      height: 10px;
      rx: 2;
      ry: 2;
      shape-rendering: geometricPrecision;
      border-radius: 2px;
      outline-offset: -1px;
      outline: var(--color-outline);
    }
    #graph .l0 {
      fill: var(--color-L0);
      background-color: var(--color-L0);
    }
    #graph .l1 {
      fill: var(--color-L1);
      background-color: var(--color-L1);
    }
    #graph .l2 {
      fill: var(--color-L2);
      background-color: var(--color-L2);
    }
    #graph .l3 {
      fill: var(--color-L3);
      background-color: var(--color-L3);
    }
    #graph .l4 {
      fill: var(--color-L4);
      background-color: var(--color-L4);
    }
  </style>
  <svg x="13" y="13" width="686" height="101">
    <g>
      <rect class="pixel l0" x="0" y="0" />
      <rect class="pixel l0" x="0" y="13" />
      <rect class="pixel l0" x="0" y="26" />
      <rect class="pixel l0" x="0" y="39" />
      <rect class="pixel l0" x="0" y="52" />
      <rect class="pixel l0" x="0" y="65" />
      <rect class="pixel l0" x="0" y="78" />
      <rect class="pixel l0" x="13" y="0" />
      <rect class="pixel l0" x="13" y="13" />
      <rect class="pixel l0" x="13" y="26" />
      <rect class="pixel l0" x="13" y="39" />
      <rect class="pixel l0" x="13" y="52" />
      <rect class="pixel l0" x="13" y="65" />
      <rect class="pixel l0" x="13" y="78" />
      <rect class="pixel l0" x="26" y="0" />
      <rect class="pixel l0" x="26" y="13" />
      <rect class="pixel l0" x="26" y="26" />
      <rect class="pixel l0" x="26" y="39" />
      <rect class="pixel l0" x="26" y="52" />
      <rect class="pixel l0" x="26" y="65" />
      <rect class="pixel l0" x="26" y="78" />
      <rect class="pixel l0" x="39" y="0" />
      <rect class="pixel l0" x="39" y="13" />
      <rect class="pixel l0" x="39" y="26" />
      <rect class="pixel l0" x="39" y="39" />
      <rect class="pixel l0" x="39" y="52" />
      <rect class="pixel l0" x="39" y="65" />
      <rect class="pixel l0" x="39" y="78" />
      <rect class="pixel l0" x="52" y="0" />
      <rect class="pixel l0" x="52" y="13" />
      <rect class="pixel l0" x="52" y="26" />
      <rect class="pixel l0" x="52" y="39" />
      <rect class="pixel l0" x="52" y="52" />
      <rect class="pixel l0" x="52" y="65" />
      <rect class="pixel l0" x="52" y="78" />
      <rect class="pixel l0" x="65" y="0" />
      <rect class="pixel l0" x="65" y="13" />
      <rect class="pixel l0" x="65" y="26" />
      <rect class="pixel l0" x="65" y="39" />
      <rect class="pixel l0" x="65" y="52" />
      <rect class="pixel l0" x="65" y="65" />
      <rect class="pixel l0" x="65" y="78" />
      <rect class="pixel l0" x="78" y="0" />
      <rect class="pixel l0" x="78" y="13" />
      <rect class="pixel l0" x="78" y="26" />
      <rect class="pixel l0" x="78" y="39" />
      <rect class="pixel l0" x="78" y="52" />
      <rect class="pixel l0" x="78" y="65" />
      <rect class="pixel l0" x="78" y="78" />
      <rect class="pixel l0" x="91" y="0" />
      <rect class="pixel l0" x="91" y="13" />
      <rect class="pixel l0" x="91" y="26" />
      <rect class="pixel l0" x="91" y="39" />
      <rect class="pixel l0" x="91" y="52" />
      <rect class="pixel l0" x="91" y="65" />
      <rect class="pixel l0" x="91" y="78" />
      <rect class="pixel l0" x="104" y="0" />
      <rect class="pixel l0" x="104" y="13" />
      <rect class="pixel l0" x="104" y="26" />
      <rect class="pixel l0" x="104" y="39" />
      <rect class="pixel l0" x="104" y="52" />
      <rect class="pixel l0" x="104" y="65" />
      <rect class="pixel l0" x="104" y="78" />
      <rect class="pixel l0" x="117" y="0" />
      <rect class="pixel l0" x="117" y="13" />
      <rect class="pixel l0" x="117" y="26" />
      <rect class="pixel l0" x="117" y="39" />
      <rect class="pixel l0" x="117" y="52" />
      <rect class="pixel l0" x="117" y="65" />
      <rect class="pixel l0" x="117" y="78" />
      <rect class="pixel l0" x="130" y="0" />
      <rect class="pixel l0" x="130" y="13" />
      <rect class="pixel l0" x="130" y="26" />
      <rect class="pixel l0" x="130" y="39" />
      <rect class="pixel l0" x="130" y="52" />
      <rect class="pixel l0" x="130" y="65" />
      <rect class="pixel l0" x="130" y="78" />
      <rect class="pixel l0" x="143" y="0" />
      <rect class="pixel l0" x="143" y="13" />
      <rect class="pixel l0" x="143" y="26" />
      <rect class="pixel l0" x="143" y="39" />
      <rect class="pixel l0" x="143" y="52" />
      <rect class="pixel l0" x="143" y="65" />
      <rect class="pixel l0" x="143" y="78" />
      <rect class="pixel l0" x="156" y="0" />
      <rect class="pixel l0" x="156" y="13" />
      <rect class="pixel l0" x="156" y="26" />
      <rect class="pixel l0" x="156" y="39" />
      <rect class="pixel l0" x="156" y="52" />
      <rect class="pixel l0" x="156" y="65" />
      <rect class="pixel l0" x="156" y="78" />
      <rect class="pixel l0" x="169" y="0" />
      <rect class="pixel l0" x="169" y="13" />
      <rect class="pixel l0" x="169" y="26" />
      <rect class="pixel l0" x="169" y="39" />
      <rect class="pixel l0" x="169" y="52" />
      <rect class="pixel l0" x="169" y="65" />
      <rect class="pixel l0" x="169" y="78" />
      <rect class="pixel l0" x="182" y="0" />
      <rect class="pixel l0" x="182" y="13" />
      <rect class="pixel l0" x="182" y="26" />
      <rect class="pixel l0" x="182" y="39" />
      <rect class="pixel l0" x="182" y="52" />
      <rect class="pixel l0" x="182" y="65" />
      <rect class="pixel l0" x="182" y="78" />
      <rect class="pixel l0" x="195" y="0" />
      <rect class="pixel l0" x="195" y="13" />
      <rect class="pixel l0" x="195" y="26" />
      <rect class="pixel l0" x="195" y="39" />
      <rect class="pixel l0" x="195" y="52" />
      <rect class="pixel l0" x="195" y="65" />
      <rect class="pixel l0" x="195" y="78" />
      <rect class="pixel l0" x="208" y="0" />
      <rect class="pixel l0" x="208" y="13" />
      <rect class="pixel l0" x="208" y="26" />
      <rect class="pixel l0" x="208" y="39" />
      <rect class="pixel l0" x="208" y="52" />
      <rect class="pixel l0" x="208" y="65" />
      <rect class="pixel l0" x="208" y="78" />
      <rect class="pixel l0" x="221" y="0" />
      <rect class="pixel l0" x="221" y="13" />
      <rect class="pixel l0" x="221" y="26" />
      <rect class="pixel l0" x="221" y="39" />
      <rect class="pixel l0" x="221" y="52" />
      <rect class="pixel l0" x="221" y="65" />
      <rect class="pixel l0" x="221" y="78" />
      <rect class="pixel l0" x="234" y="0" />
      <rect class="pixel l0" x="234" y="13" />
      <rect class="pixel l0" x="234" y="26" />
      <rect class="pixel l0" x="234" y="39" />
      <rect class="pixel l0" x="234" y="52" />
      <rect class="pixel l0" x="234" y="65" />
      <rect class="pixel l0" x="234" y="78" />
      <rect class="pixel l0" x="247" y="0" />
      <rect class="pixel l0" x="247" y="13" />
      <rect class="pixel l0" x="247" y="26" />
      <rect class="pixel l0" x="247" y="39" />
      <rect class="pixel l0" x="247" y="52" />
      <rect class="pixel l0" x="247" y="65" />
      <rect class="pixel l0" x="247" y="78" />
      <rect class="pixel l0" x="260" y="0" />
      <rect class="pixel l0" x="260" y="13" />
      <rect class="pixel l0" x="260" y="26" />
      <rect class="pixel l0" x="260" y="39" />
      <rect class="pixel l0" x="260" y="52" />
      <rect class="pixel l0" x="260" y="65" />
      <rect class="pixel l0" x="260" y="78" />
      <rect class="pixel l0" x="273" y="0" />
      <rect class="pixel l0" x="273" y="13" />
      <rect class="pixel l0" x="273" y="26" />
      <rect class="pixel l0" x="273" y="39" />
      <rect class="pixel l0" x="273" y="52" />
      <rect class="pixel l0" x="273" y="65" />
      <rect class="pixel l0" x="273" y="78" />
      <rect class="pixel l0" x="286" y="0" />
      <rect class="pixel l0" x="286" y="13" />
      <rect class="pixel l0" x="286" y="26" />
      <rect class="pixel l0" x="286" y="39" />
      <rect class="pixel l0" x="286" y="52" />
      <rect class="pixel l0" x="286" y="65" />
      <rect class="pixel l0" x="286" y="78" />
      <rect class="pixel l0" x="299" y="0" />
      <rect class="pixel l0" x="299" y="13" />
      <rect class="pixel l0" x="299" y="26" />
      <rect class="pixel l0" x="299" y="39" />
      <rect class="pixel l0" x="299" y="52" />
      <rect class="pixel l0" x="299" y="65" />
      <rect class="pixel l0" x="299" y="78" />
      <rect class="pixel l0" x="312" y="0" />
      <rect class="pixel l0" x="312" y="13" />
      <rect class="pixel l0" x="312" y="26" />
      <rect class="pixel l0" x="312" y="39" />
      <rect class="pixel l0" x="312" y="52" />
      <rect class="pixel l0" x="312" y="65" />
      <rect class="pixel l0" x="312" y="78" />
      <rect class="pixel l0" x="325" y="0" />
      <rect class="pixel l0" x="325" y="13" />
      <rect class="pixel l0" x="325" y="26" />
      <rect class="pixel l0" x="325" y="39" />
      <rect class="pixel l0" x="325" y="52" />
      <rect class="pixel l0" x="325" y="65" />
      <rect class="pixel l0" x="325" y="78" />
      <rect class="pixel l0" x="338" y="0" />
      <rect class="pixel l0" x="338" y="13" />
      <rect class="pixel l0" x="338" y="26" />
      <rect class="pixel l0" x="338" y="39" />
      <rect class="pixel l0" x="338" y="52" />
      <rect class="pixel l0" x="338" y="65" />
      <rect class="pixel l0" x="338" y="78" />
      <rect class="pixel l0" x="351" y="0" />
      <rect class="pixel l0" x="351" y="13" />
      <rect class="pixel l0" x="351" y="26" />
      <rect class="pixel l0" x="351" y="39" />
      <rect class="pixel l0" x="351" y="52" />
      <rect class="pixel l0" x="351" y="65" />
      <rect class="pixel l0" x="351" y="78" />
      <rect class="pixel l0" x="364" y="0" />
      <rect class="pixel l0" x="364" y="13" />
      <rect class="pixel l0" x="364" y="26" />
      <rect class="pixel l0" x="364" y="39" />
      <rect class="pixel l0" x="364" y="52" />
      <rect class="pixel l0" x="364" y="65" />
      <rect class="pixel l0" x="364" y="78" />
      <rect class="pixel l0" x="377" y="0" />
      <rect class="pixel l0" x="377" y="13" />
      <rect class="pixel l0" x="377" y="26" />
      <rect class="pixel l0" x="377" y="39" />
      <rect class="pixel l0" x="377" y="52" />
      <rect class="pixel l0" x="377" y="65" />
      <rect class="pixel l0" x="377" y="78" />
      <rect class="pixel l0" x="390" y="0" />
      <rect class="pixel l0" x="390" y="13" />
      <rect class="pixel l0" x="390" y="26" />
      <rect class="pixel l0" x="390" y="39" />
      <rect class="pixel l0" x="390" y="52" />
      <rect class="pixel l0" x="390" y="65" />
      <rect class="pixel l0" x="390" y="78" />
      <rect class="pixel l0" x="403" y="0" />
      <rect class="pixel l0" x="403" y="13" />
      <rect class="pixel l0" x="403" y="26" />
      <rect class="pixel l0" x="403" y="39" />
      <rect class="pixel l0" x="403" y="52" />
      <rect class="pixel l0" x="403" y="65" />
      <rect class="pixel l0" x="403" y="78" />
      <rect class="pixel l0" x="416" y="0" />
      <rect class="pixel l0" x="416" y="13" />
      <rect class="pixel l0" x="416" y="26" />
      <rect class="pixel l0" x="416" y="39" />
      <rect class="pixel l0" x="416" y="52" />
      <rect class="pixel l0" x="416" y="65" />
      <rect class="pixel l0" x="416" y="78" />
      <rect class="pixel l0" x="429" y="0" />
      <rect class="pixel l0" x="429" y="13" />
      <rect class="pixel l0" x="429" y="26" />
      <rect class="pixel l0" x="429" y="39" />
      <rect class="pixel l0" x="429" y="52" />
      <rect class="pixel l0" x="429" y="65" />
      <rect class="pixel l0" x="429" y="78" />
      <rect class="pixel l0" x="442" y="0" />
      <rect class="pixel l0" x="442" y="13" />
      <rect class="pixel l0" x="442" y="26" />
      <rect class="pixel l0" x="442" y="39" />
      <rect class="pixel l0" x="442" y="52" />
      <rect class="pixel l0" x="442" y="65" />
      <rect class="pixel l0" x="442" y="78" />
      <rect class="pixel l0" x="455" y="0" />
      <rect class="pixel l0" x="455" y="13" />
      <rect class="pixel l0" x="455" y="26" />
      <rect class="pixel l0" x="455" y="39" />
      <rect class="pixel l0" x="455" y="52" />
      <rect class="pixel l0" x="455" y="65" />
      <rect class="pixel l0" x="455" y="78" />
      <rect class="pixel l0" x="468" y="0" />
      <rect class="pixel l0" x="468" y="13" />
      <rect class="pixel l0" x="468" y="26" />
      <rect class="pixel l0" x="468" y="39" />
      <rect class="pixel l0" x="468" y="52" />
      <rect class="pixel l0" x="468" y="65" />
      <rect class="pixel l0" x="468" y="78" />
      <rect class="pixel l0" x="481" y="0" />
      <rect class="pixel l0" x="481" y="13" />
      <rect class="pixel l0" x="481" y="26" />
      <rect class="pixel l0" x="481" y="39" />
      <rect class="pixel l0" x="481" y="52" />
      <rect class="pixel l0" x="481" y="65" />
      <rect class="pixel l0" x="481" y="78" />
      <rect class="pixel l0" x="494" y="0" />
      <rect class="pixel l0" x="494" y="13" />
      <rect class="pixel l0" x="494" y="26" />
      <rect class="pixel l0" x="494" y="39" />
      <rect class="pixel l0" x="494" y="52" />
      <rect class="pixel l0" x="494" y="65" />
      <rect class="pixel l0" x="494" y="78" />
      <rect class="pixel l0" x="507" y="0" />
      <rect class="pixel l0" x="507" y="13" />
      <rect class="pixel l0" x="507" y="26" />
      <rect class="pixel l0" x="507" y="39" />
      <rect class="pixel l0" x="507" y="52" />
      <rect class="pixel l0" x="507" y="65" />
      <rect class="pixel l0" x="507" y="78" />
      <rect class="pixel l0" x="520" y="0" />
      <rect class="pixel l0" x="520" y="13" />
      <rect class="pixel l0" x="520" y="26" />
      <rect class="pixel l0" x="520" y="39" />
      <rect class="pixel l0" x="520" y="52" />
      <rect class="pixel l0" x="520" y="65" />
      <rect class="pixel l0" x="520" y="78" />
      <rect class="pixel l0" x="533" y="0" />
      <rect class="pixel l0" x="533" y="13" />
      <rect class="pixel l0" x="533" y="26" />
      <rect class="pixel l0" x="533" y="39" />
      <rect class="pixel l0" x="533" y="52" />
      <rect class="pixel l0" x="533" y="65" />
      <rect class="pixel l0" x="533" y="78" />
      <rect class="pixel l0" x="546" y="0" />
      <rect class="pixel l0" x="546" y="13" />
      <rect class="pixel l0" x="546" y="26" />
      <rect class="pixel l0" x="546" y="39" />
      <rect class="pixel l0" x="546" y="52" />
      <rect class="pixel l0" x="546" y="65" />
      <rect class="pixel l0" x="546" y="78" />
      <rect class="pixel l0" x="559" y="0" />
      <rect class="pixel l0" x="559" y="13" />
      <rect class="pixel l0" x="559" y="26" />
      <rect class="pixel l0" x="559" y="39" />
      <rect class="pixel l0" x="559" y="52" />
      <rect class="pixel l0" x="559" y="65" />
      <rect class="pixel l0" x="559" y="78" />
      <rect class="pixel l0" x="572" y="0" />
      <rect class="pixel l0" x="572" y="13" />
      <rect class="pixel l0" x="572" y="26" />
      <rect class="pixel l0" x="572" y="39" />
      <rect class="pixel l0" x="572" y="52" />
      <rect class="pixel l0" x="572" y="65" />
      <rect class="pixel l0" x="572" y="78" />
      <rect class="pixel l0" x="585" y="0" />
      <rect class="pixel l0" x="585" y="13" />
      <rect class="pixel l0" x="585" y="26" />
      <rect class="pixel l0" x="585" y="39" />
      <rect class="pixel l0" x="585" y="52" />
      <rect class="pixel l0" x="585" y="65" />
      <rect class="pixel l0" x="585" y="78" />
      <rect class="pixel l0" x="598" y="0" />
      <rect class="pixel l0" x="598" y="13" />
      <rect class="pixel l0" x="598" y="26" />
      <rect class="pixel l0" x="598" y="39" />
      <rect class="pixel l0" x="598" y="52" />
      <rect class="pixel l0" x="598" y="65" />
      <rect class="pixel l0" x="598" y="78" />
      <rect class="pixel l0" x="611" y="0" />
      <rect class="pixel l0" x="611" y="13" />
      <rect class="pixel l0" x="611" y="26" />
      <rect class="pixel l0" x="611" y="39" />
      <rect class="pixel l0" x="611" y="52" />
      <rect class="pixel l0" x="611" y="65" />
      <rect class="pixel l0" x="611" y="78" />
      <rect class="pixel l0" x="624" y="0" />
      <rect class="pixel l0" x="624" y="13" />
      <rect class="pixel l0" x="624" y="26" />
      <rect class="pixel l0" x="624" y="39" />
      <rect class="pixel l0" x="624" y="52" />
      <rect class="pixel l0" x="624" y="65" />
      <rect class="pixel l0" x="624" y="78" />
      <rect class="pixel l0" x="637" y="0" />
      <rect class="pixel l0" x="637" y="13" />
      <rect class="pixel l0" x="637" y="26" />
      <rect class="pixel l0" x="637" y="39" />
      <rect class="pixel l0" x="637" y="52" />
      <rect class="pixel l0" x="637" y="65" />
      <rect class="pixel l0" x="637" y="78" />
      <rect class="pixel l0" x="650" y="0" />
      <rect class="pixel l0" x="650" y="13" />
      <rect class="pixel l0" x="650" y="26" />
      <rect class="pixel l0" x="650" y="39" />
      <rect class="pixel l0" x="650" y="52" />
      <rect class="pixel l0" x="650" y="65" />
      <rect class="pixel l0" x="650" y="78" />
      <rect class="pixel l0" x="663" y="0" />
      <rect class="pixel l0" x="663" y="13" />
      <rect class="pixel l0" x="663" y="26" />
      <rect class="pixel l0" x="663" y="39" />
      <rect class="pixel l0" x="663" y="52" />
      <rect class="pixel l0" x="663" y="65" />
      <rect class="pixel l0" x="663" y="78" />
      <rect class="pixel l0" x="676" y="0" />
      <rect class="pixel l0" x="676" y="13" />
      <rect class="pixel l0" x="676" y="26" />
      <rect class="pixel l0" x="676" y="39" />
      <rect class="pixel l0" x="676" y="52" />
      <rect class="pixel l0" x="676" y="65" />
      <rect class="pixel l0" x="676" y="78" />
    </g>
    <g id="text-pixels">
      <rect class="pixel l2" x="13" y="13" />
      <rect class="pixel l2" x="1053" y="13" />
      <rect class="pixel l4" x="13" y="26" />
      <rect class="pixel l4" x="1053" y="26" />
      <rect class="pixel l3" x="13" y="39" />
      <rect class="pixel l3" x="1053" y="39" />
      <rect class="pixel l3" x="13" y="52" />
      <rect class="pixel l3" x="1053" y="52" />
      <rect class="pixel l4" x="13" y="65" />
      <rect class="pixel l4" x="1053" y="65" />
      <rect class="pixel l1" x="26" y="0" />
      <rect class="pixel l1" x="1066" y="0" />
      <rect class="pixel l2" x="26" y="78" />
      <rect class="pixel l2" x="1066" y="78" />
      <rect class="pixel l3" x="39" y="13" />
      <rect class="pixel l3" x="1079" y="13" />
      <rect class="pixel l2" x="39" y="65" />
      <rect class="pixel l2" x="1079" y="65" />
      <rect class="pixel l3" x="65" y="0" />
      <rect class="pixel l3" x="1105" y="0" />
      <rect class="pixel l2" x="65" y="78" />
      <rect class="pixel l2" x="1105" y="78" />
      <rect class="pixel l1" x="78" y="0" />
      <rect class="pixel l1" x="1118" y="0" />
      <rect class="pixel l4" x="78" y="13" />
      <rect class="pixel l4" x="1118" y="13" />
      <rect class="pixel l1" x="78" y="26" />
      <rect class="pixel l1" x="1118" y="26" />
      <rect class="pixel l3" x="78" y="39" />
      <rect class="pixel l3" x="1118" y="39" />
      <rect class="pixel l2" x="78" y="52" />
      <rect class="pixel l2" x="1118" y="52" />
      <rect class="pixel l1" x="78" y="65" />
      <rect class="pixel l1" x="1118" y="65" />
      <rect class="pixel l1" x="78" y="78" />
      <rect class="pixel l1" x="1118" y="78" />
      <rect class="pixel l3" x="91" y="0" />
      <rect class="pixel l3" x="1131" y="0" />
      <rect class="pixel l4" x="91" y="78" />
      <rect class="pixel l4" x="1131" y="78" />
      <rect class="pixel l2" x="117" y="13" />
      <rect class="pixel l2" x="1157" y="13" />
      <rect class="pixel l3" x="117" y="26" />
      <rect class="pixel l3" x="1157" y="26" />
      <rect class="pixel l3" x="117" y="39" />
      <rect class="pixel l3" x="1157" y="39" />
      <rect class="pixel l2" x="117" y="52" />
      <rect class="pixel l2" x="1157" y="52" />
      <rect class="pixel l4" x="117" y="65" />
      <rect class="pixel l4" x="1157" y="65" />
      <rect class="pixel l3" x="117" y="78" />
      <rect class="pixel l3" x="1157" y="78" />
      <rect class="pixel l1" x="130" y="0" />
      <rect class="pixel l1" x="1170" y="0" />
      <rect class="pixel l4" x="130" y="52" />
      <rect class="pixel l4" x="1170" y="52" />
      <rect class="pixel l4" x="143" y="13" />
      <rect class="pixel l4" x="1183" y="13" />
      <rect class="pixel l1" x="143" y="26" />
      <rect class="pixel l1" x="1183" y="26" />
      <rect class="pixel l1" x="143" y="39" />
      <rect class="pixel l1" x="1183" y="39" />
      <rect class="pixel l1" x="143" y="52" />
      <rect class="pixel l1" x="1183" y="52" />
      <rect class="pixel l2" x="143" y="65" />
      <rect class="pixel l2" x="1183" y="65" />
      <rect class="pixel l3" x="143" y="78" />
      <rect class="pixel l3" x="1183" y="78" />
      <rect class="pixel l4" x="169" y="13" />
      <rect class="pixel l4" x="1209" y="13" />
      <rect class="pixel l1" x="169" y="26" />
      <rect class="pixel l1" x="1209" y="26" />
      <rect class="pixel l2" x="169" y="39" />
      <rect class="pixel l2" x="1209" y="39" />
      <rect class="pixel l3" x="169" y="52" />
      <rect class="pixel l3" x="1209" y="52" />
      <rect class="pixel l2" x="169" y="65" />
      <rect class="pixel l2" x="1209" y="65" />
      <rect class="pixel l1" x="182" y="0" />
      <rect class="pixel l1" x="1222" y="0" />
      <rect class="pixel l2" x="182" y="78" />
      <rect class="pixel l2" x="1222" y="78" />
      <rect class="pixel l2" x="195" y="13" />
      <rect class="pixel l2" x="1235" y="13" />
      <rect class="pixel l1" x="195" y="26" />
      <rect class="pixel l1" x="1235" y="26" />
      <rect class="pixel l3" x="195" y="39" />
      <rect class="pixel l3" x="1235" y="39" />
      <rect class="pixel l3" x="195" y="52" />
      <rect class="pixel l3" x="1235" y="52" />
      <rect class="pixel l4" x="195" y="65" />
      <rect class="pixel l4" x="1235" y="65" />
      <rect class="pixel l3" x="234" y="0" />
      <rect class="pixel l3" x="1274" y="0" />
      <rect class="pixel l1" x="234" y="13" />
      <rect class="pixel l1" x="1274" y="13" />
      <rect class="pixel l3" x="234" y="26" />
      <rect class="pixel l3" x="1274" y="26" />
      <rect class="pixel l2" x="234" y="39" />
      <rect class="pixel l2" x="1274" y="39" />
      <rect class="pixel l2" x="234" y="52" />
      <rect class="pixel l2" x="1274" y="52" />
      <rect class="pixel l3" x="234" y="78" />
      <rect class="pixel l3" x="1274" y="78" />
      <rect class="pixel l1" x="325" y="0" />
      <rect class="pixel l1" x="1365" y="0" />
      <rect class="pixel l4" x="325" y="78" />
      <rect class="pixel l4" x="1365" y="78" />
      <rect class="pixel l4" x="338" y="0" />
      <rect class="pixel l4" x="1378" y="0" />
      <rect class="pixel l1" x="338" y="13" />
      <rect class="pixel l1" x="1378" y="13" />
      <rect class="pixel l2" x="338" y="26" />
      <rect class="pixel l2" x="1378" y="26" />
      <rect class="pixel l2" x="338" y="39" />
      <rect class="pixel l2" x="1378" y="39" />
      <rect class="pixel l1" x="338" y="52" />
      <rect class="pixel l1" x="1378" y="52" />
      <rect class="pixel l2" x="338" y="65" />
      <rect class="pixel l2" x="1378" y="65" />
      <rect class="pixel l2" x="338" y="78" />
      <rect class="pixel l2" x="1378" y="78" />
      <rect class="pixel l2" x="351" y="0" />
      <rect class="pixel l2" x="1391" y="0" />
      <rect class="pixel l3" x="351" y="78" />
      <rect class="pixel l3" x="1391" y="78" />
      <rect class="pixel l4" x="390" y="0" />
      <rect class="pixel l4" x="1430" y="0" />
      <rect class="pixel l3" x="390" y="13" />
      <rect class="pixel l3" x="1430" y="13" />
      <rect class="pixel l3" x="429" y="0" />
      <rect class="pixel l3" x="1469" y="0" />
      <rect class="pixel l1" x="429" y="13" />
      <rect class="pixel l1" x="1469" y="13" />
      <rect class="pixel l4" x="429" y="26" />
      <rect class="pixel l4" x="1469" y="26" />
      <rect class="pixel l2" x="429" y="39" />
      <rect class="pixel l2" x="1469" y="39" />
      <rect class="pixel l3" x="429" y="52" />
      <rect class="pixel l3" x="1469" y="52" />
      <rect class="pixel l3" x="429" y="65" />
      <rect class="pixel l3" x="1469" y="65" />
      <rect class="pixel l1" x="429" y="78" />
      <rect class="pixel l1" x="1469" y="78" />
      <rect class="pixel l4" x="442" y="13" />
      <rect class="pixel l4" x="1482" y="13" />
      <rect class="pixel l1" x="442" y="26" />
      <rect class="pixel l1" x="1482" y="26" />
      <rect class="pixel l1" x="442" y="39" />
      <rect class="pixel l1" x="1482" y="39" />
      <rect class="pixel l4" x="455" y="0" />
      <rect class="pixel l4" x="1495" y="0" />
      <rect class="pixel l4" x="455" y="13" />
      <rect class="pixel l4" x="1495" y="13" />
      <rect class="pixel l2" x="455" y="26" />
      <rect class="pixel l2" x="1495" y="26" />
      <rect class="pixel l3" x="455" y="39" />
      <rect class="pixel l3" x="1495" y="39" />
      <rect class="pixel l1" x="455" y="52" />
      <rect class="pixel l1" x="1495" y="52" />
      <rect class="pixel l3" x="455" y="65" />
      <rect class="pixel l3" x="1495" y="65" />
      <rect class="pixel l3" x="455" y="78" />
      <rect class="pixel l3" x="1495" y="78" />
      <rect class="pixel l1" x="533" y="13" />
      <rect class="pixel l1" x="1573" y="13" />
      <rect class="pixel l2" x="533" y="26" />
      <rect class="pixel l2" x="1573" y="26" />
      <rect class="pixel l1" x="533" y="39" />
      <rect class="pixel l1" x="1573" y="39" />
      <rect class="pixel l2" x="533" y="52" />
      <rect class="pixel l2" x="1573" y="52" />
      <rect class="pixel l2" x="533" y="65" />
      <rect class="pixel l2" x="1573" y="65" />
      <rect class="pixel l2" x="546" y="0" />
      <rect class="pixel l2" x="1586" y="0" />
      <rect class="pixel l2" x="546" y="78" />
      <rect class="pixel l2" x="1586" y="78" />
      <rect class="pixel l4" x="559" y="13" />
      <rect class="pixel l4" x="1599" y="13" />
      <rect class="pixel l2" x="559" y="39" />
      <rect class="pixel l2" x="1599" y="39" />
      <rect class="pixel l1" x="559" y="52" />
      <rect class="pixel l1" x="1599" y="52" />
      <rect class="pixel l3" x="559" y="65" />
      <rect class="pixel l3" x="1599" y="65" />
      <rect class="pixel l3" x="559" y="78" />
      <rect class="pixel l3" x="1599" y="78" />
      <rect class="pixel l2" x="585" y="13" />
      <rect class="pixel l2" x="1625" y="13" />
      <rect class="pixel l1" x="585" y="26" />
      <rect class="pixel l1" x="1625" y="26" />
      <rect class="pixel l2" x="585" y="39" />
      <rect class="pixel l2" x="1625" y="39" />
      <rect class="pixel l3" x="585" y="52" />
      <rect class="pixel l3" x="1625" y="52" />
      <rect class="pixel l1" x="585" y="65" />
      <rect class="pixel l1" x="1625" y="65" />
      <rect class="pixel l2" x="585" y="78" />
      <rect class="pixel l2" x="1625" y="78" />
      <rect class="pixel l3" x="598" y="0" />
      <rect class="pixel l3" x="1638" y="0" />
      <rect class="pixel l2" x="598" y="52" />
      <rect class="pixel l2" x="1638" y="52" />
      <rect class="pixel l2" x="611" y="13" />
      <rect class="pixel l2" x="1651" y="13" />
      <rect class="pixel l2" x="611" y="26" />
      <rect class="pixel l2" x="1651" y="26" />
      <rect class="pixel l1" x="611" y="39" />
      <rect class="pixel l1" x="1651" y="39" />
      <rect class="pixel l2" x="611" y="52" />
      <rect class="pixel l2" x="1651" y="52" />
      <rect class="pixel l4" x="611" y="65" />
      <rect class="pixel l4" x="1651" y="65" />
      <rect class="pixel l2" x="611" y="78" />
      <rect class="pixel l2" x="1651" y="78" />
      <rect class="pixel l3" x="637" y="0" />
      <rect class="pixel l3" x="1677" y="0" />
      <rect class="pixel l4" x="637" y="13" />
      <rect class="pixel l4" x="1677" y="13" />
      <rect class="pixel l2" x="637" y="26" />
      <rect class="pixel l2" x="1677" y="26" />
      <rect class="pixel l2" x="637" y="39" />
      <rect class="pixel l2" x="1677" y="39" />
      <rect class="pixel l1" x="637" y="52" />
      <rect class="pixel l1" x="1677" y="52" />
      <rect class="pixel l3" x="637" y="65" />
      <rect class="pixel l3" x="1677" y="65" />
      <rect class="pixel l1" x="637" y="78" />
      <rect class="pixel l1" x="1677" y="78" />
      <rect class="pixel l3" x="650" y="0" />
      <rect class="pixel l3" x="1690" y="0" />
      <rect class="pixel l3" x="650" y="39" />
      <rect class="pixel l3" x="1690" y="39" />
      <rect class="pixel l4" x="650" y="78" />
      <rect class="pixel l4" x="1690" y="78" />
      <rect class="pixel l1" x="663" y="13" />
      <rect class="pixel l1" x="1703" y="13" />
      <rect class="pixel l2" x="663" y="26" />
      <rect class="pixel l2" x="1703" y="26" />
      <rect class="pixel l2" x="663" y="52" />
      <rect class="pixel l2" x="1703" y="52" />
      <rect class="pixel l1" x="663" y="65" />
      <rect class="pixel l1" x="1703" y="65" />
      <rect class="pixel l2" x="689" y="0" />
      <rect class="pixel l1" x="689" y="13" />
      <rect class="pixel l4" x="689" y="26" />
      <rect class="pixel l2" x="689" y="39" />
      <rect class="pixel l3" x="689" y="52" />
      <rect class="pixel l4" x="689" y="65" />
      <rect class="pixel l1" x="689" y="78" />
      <rect class="pixel l1" x="702" y="0" />
      <rect class="pixel l3" x="702" y="39" />
      <rect class="pixel l1" x="715" y="13" />
      <rect class="pixel l1" x="715" y="26" />
      <rect class="pixel l1" x="715" y="52" />
      <rect class="pixel l4" x="715" y="65" />
      <rect class="pixel l1" x="715" y="78" />
      <rect class="pixel l1" x="741" y="0" />
      <rect class="pixel l4" x="741" y="78" />
      <rect class="pixel l1" x="754" y="0" />
      <rect class="pixel l1" x="754" y="13" />
      <rect class="pixel l3" x="754" y="26" />
      <rect class="pixel l1" x="754" y="39" />
      <rect class="pixel l3" x="754" y="52" />
      <rect class="pixel l4" x="754" y="65" />
      <rect class="pixel l4" x="754" y="78" />
      <rect class="pixel l1" x="767" y="0" />
      <rect class="pixel l2" x="767" y="78" />
      <rect class="pixel l4" x="793" y="0" />
      <rect class="pixel l3" x="793" y="13" />
      <rect class="pixel l2" x="793" y="26" />
      <rect class="pixel l2" x="793" y="39" />
      <rect class="pixel l3" x="793" y="52" />
      <rect class="pixel l4" x="793" y="65" />
      <rect class="pixel l1" x="793" y="78" />
      <rect class="pixel l1" x="806" y="0" />
      <rect class="pixel l2" x="806" y="39" />
      <rect class="pixel l3" x="806" y="78" />
      <rect class="pixel l2" x="819" y="0" />
      <rect class="pixel l1" x="819" y="78" />
      <rect class="pixel l1" x="845" y="0" />
      <rect class="pixel l2" x="845" y="13" />
      <rect class="pixel l2" x="845" y="26" />
      <rect class="pixel l1" x="845" y="39" />
      <rect class="pixel l4" x="845" y="52" />
      <rect class="pixel l4" x="845" y="65" />
      <rect class="pixel l1" x="845" y="78" />
      <rect class="pixel l1" x="858" y="78" />
      <rect class="pixel l3" x="871" y="78" />
      <rect class="pixel l4" x="897" y="0" />
      <rect class="pixel l4" x="897" y="13" />
      <rect class="pixel l1" x="897" y="26" />
      <rect class="pixel l1" x="897" y="39" />
      <rect class="pixel l1" x="897" y="52" />
      <rect class="pixel l1" x="897" y="65" />
      <rect class="pixel l4" x="897" y="78" />
      <rect class="pixel l1" x="910" y="0" />
      <rect class="pixel l3" x="910" y="39" />
      <rect class="pixel l3" x="910" y="78" />
      <rect class="pixel l2" x="923" y="0" />
      <rect class="pixel l4" x="923" y="78" />
      <rect class="pixel l2" x="962" y="78" />
    </g>
  </svg>
  <g transform="translate(13, 117)"><text font-size="13" /></g>
</svg>
